<svg width="40" height="40" viewBox="0 0 40 40" fill="none" xmlns="http://www.w3.org/2000/svg">
<rect width="40" height="40" rx="20" fill="#2D9CDB"/>
<path d="M26.1406 9.35938L22.1562 13.3438C22.0625 13.4375 22.0156 13.5781 22.0156 13.7188V21.875C22.0156 22.2969 22.5312 22.5312 22.8125 22.25L26.8438 18.6406C26.9375 18.5469 26.9844 18.4062 26.9844 18.2656V9.6875C26.9844 9.26562 26.4688 9.03125 26.1406 9.35938ZM30.4531 13.2031C29.9844 12.9688 29.5156 12.7812 29 12.5938V24.6406C27.875 24.2188 26.7031 23.9844 25.4844 23.9844C23.6094 23.9844 21.7344 24.5469 20 25.5781V13.4844C18.3594 12.5469 16.5312 11.9844 14.5156 11.9844C12.6875 11.9844 11 12.4531 9.54688 13.2031C9.21875 13.3438 8.98438 13.7188 8.98438 14.0938V26.1406C8.98438 26.9375 9.82812 27.4062 10.4844 27.0312C11.7031 26.4219 13.0625 26 14.5156 26C16.5781 26 18.5 26.7969 20 28.0156C21.5 26.7969 23.4219 26 25.4844 26C26.9375 26 28.2969 26.4219 29.5156 27.0312C30.1719 27.4062 31.0156 26.9375 31.0156 26.1875V14.0938C31.0156 13.7188 30.7812 13.3438 30.4531 13.2031Z" fill="white"/>
</svg>
